#!OML:ASF C:\Vicon Data\Big\jianyuan-13\jianyuan\Session 1\Capture.male.ASF
:FULLY-SPECIFIED
:DEGREES
167
root -7.714351 17.498007 -6.773850 5.902643 0.652757 3.474636
lowerback -12.494956 2.051045 -4.741142 
upperback -0.183176 3.560475 -2.139115 
thorax 6.671914 1.622055 1.046584 
lowerneck -2.794001 -3.884141 3.086747 
upperneck -2.726604 -5.283063 -2.076090 
head -0.516233 -2.663595 -1.162515 
rclavicle 0.000000 0.000000 
rhumerus -41.863405 -18.329005 -82.820720 
rradius 27.627303 
rwrist 34.179882 
rhand -18.025561 -20.363649 
rfingers 0.000000 
rthumb 8.245662 -50.182733 
lclavicle 0.000000 0.000000 
lhumerus -49.309732 47.206318 55.253501 
lradius 22.098080 
lwrist -69.046605 
lhand -20.962367 4.261585 
lfingers 0.000000 
lthumb 5.410677 34.172512 
rfemur -21.274293 -5.260940 15.837779 
rtibia 72.508990 
rfoot -4.732084 -15.764265 
rtoes -26.412086 
lfemur -26.727295 -2.370135 -25.683935 
ltibia 28.240129 
lfoot -6.335434 2.982007 
ltoes -20.603751 
168
root -7.699966 17.503066 -6.709643 5.751079 0.695468 3.485763
lowerback -12.361385 1.957318 -4.703361 
upperback -0.151709 3.421540 -2.112823 
thorax 6.637447 1.555709 1.024155 
lowerneck -2.698817 -3.829262 3.012044 
upperneck -2.643520 -5.203801 -2.008113 
head -0.500103 -2.622796 -1.127496 
rclavicle 0.000000 0.000000 
rhumerus -42.331885 -18.334021 -82.615255 
rradius 27.546739 
rwrist 33.627324 
rhand -18.389424 -20.766809 
rfingers 0.000000 
rthumb 7.894497 -50.599304 
lclavicle 0.000000 0.000000 
lhumerus -47.606088 46.424164 57.390354 
lradius 22.347856 
lwrist -67.402443 
lhand -21.028969 4.360166 
lfingers 0.000000 
lthumb 5.346358 34.272713 
rfemur -22.180333 -5.259538 15.819977 
rtibia 72.651805 
rfoot -5.231318 -15.602598 
rtoes -26.789247 
lfemur -26.303952 -2.331858 -25.776759 
ltibia 28.245595 
lfoot -6.521251 2.802224 
ltoes -20.883019 
169
root -7.686047 17.510453 -6.645012 5.612312 0.741410 3.478035
lowerback -12.237337 1.859535 -4.648873 
upperback -0.137209 3.274434 -2.082224 
thorax 6.591109 1.486281 0.995895 
lowerneck -2.591967 -3.773782 2.923616 
upperneck -2.535710 -5.122620 -1.909934 
head -0.477127 -2.580899 -1.080837 
rclavicle 0.000000 0.000000 
rhumerus -42.815244 -18.403402 -82.363198 
rradius 27.462032 
rwrist 33.076858 
rhand -18.688494 -21.131801 
rfingers 0.000000 
rthumb 7.605860 -50.975067 
lclavicle 0.000000 0.000000 
lhumerus -46.068235 45.675013 59.351572 
lradius 22.617054 
lwrist -65.710948 
lhand -21.047173 4.397497 
lfingers 0.000000 
lthumb 5.328774 34.310479 
rfemur -23.092566 -5.206770 15.831139 
rtibia 72.728665 
rfoot -5.696967 -15.419837 
rtoes -27.145504 
lfemur -25.887595 -2.291799 -25.846159 
ltibia 28.252571 
lfoot -6.736767 2.623307 
ltoes -21.096205 
170
root -7.670813 17.517541 -6.580378 5.487233 0.796873 3.423941
lowerback -12.153435 1.769496 -4.526994 
upperback -0.098692 3.131445 -2.042298 
thorax 6.595527 1.419275 0.942893 
lowerneck -2.526762 -3.723465 2.847419 
upperneck -2.444111 -5.050613 -1.850811 
head -0.454114 -2.543868 -1.049204 
rclavicle 0.000000 0.000000 
rhumerus -43.295829 -18.509024 -82.055676 
rradius 27.456611 
rwrist 32.589148 
rhand -18.867112 -21.308319 
rfingers 0.000000 
rthumb 7.433455 -51.157733 
lclavicle 0.000000 0.000000 
lhumerus -44.534370 44.915103 61.287706 
lradius 22.911102 
lwrist -64.377133 
lhand -21.172320 4.693091 
lfingers 0.000000 
lthumb 5.207944 34.609044 
rfemur -24.028576 -5.231129 15.859965 
rtibia 72.729103 
rfoot -6.109355 -15.190455 
rtoes -27.181461 
lfemur -25.498672 -2.379296 -25.845043 
ltibia 28.270144 
lfoot -7.000847 2.560188 
ltoes -21.216587 
171
root -7.652463 17.521271 -6.518790 5.388637 0.870082 3.444059
lowerback -12.054687 1.653847 -4.476858 
upperback -0.083289 2.963031 -2.009196 
thorax 6.564575 1.338736 0.917733 
lowerneck -2.428862 -3.650765 2.792047 
upperneck -2.354994 -4.949299 -1.842169 
head -0.438656 -2.492157 -1.036187 
rclavicle 0.000000 0.000000 
rhumerus -43.770759 -18.532352 -81.725386 
rradius 27.418708 
rwrist 32.190248 
rhand -19.040602 -21.472002 
rfingers 0.000000 
rthumb 7.265974 -51.327274 
lclavicle 0.000000 0.000000 
lhumerus -42.855352 43.665186 63.575776 
lradius 23.194768 
lwrist -63.282904 
lhand -21.721067 5.949358 
lfingers 0.000000 
lthumb 4.678069 35.877506 
rfemur -24.994530 -5.303541 15.774564 
rtibia 72.671476 
rfoot -6.467864 -14.787126 
rtoes -27.321042 
lfemur -25.158666 -2.423355 -25.953864 
ltibia 28.305614 
lfoot -7.221346 2.449604 
ltoes -21.609919 
172
root -7.635705 17.525611 -6.450657 5.151478 0.893705 3.401392
lowerback -11.887985 1.563388 -4.366238 
upperback -0.021897 2.816088 -1.951298 
thorax 6.544544 1.269484 0.887137 
lowerneck -2.346696 -3.591695 2.687627 
upperneck -2.241512 -4.865170 -1.812633 
head -0.411798 -2.448728 -1.009004 
rclavicle 0.000000 0.000000 
rhumerus -44.304024 -18.712110 -81.284948 
rradius 27.352013 
rwrist 32.234156 
rhand -19.180967 -21.625316 
rfingers 0.000000 
rthumb 7.130476 -51.485253 
lclavicle 0.000000 0.000000 
lhumerus -41.424221 42.746442 65.480761 
lradius 23.554163 
lwrist -61.605015 
lhand -21.807447 6.289373 
lfingers 0.000000 
lthumb 4.594667 36.219527 
rfemur -25.775695 -5.215065 15.772436 
rtibia 72.530540 
rfoot -6.793989 -14.363455 
rtoes -27.434714 
lfemur -24.656297 -2.426160 -25.996896 
ltibia 28.372424 
lfoot -7.501666 2.343613 
ltoes -21.787261 
173
root -7.621133 17.529672 -6.386846 5.041025 0.950329 3.403379
lowerback -11.795329 1.450910 -4.308648 
upperback 0.004127 2.652688 -1.928451 
thorax 6.528508 1.191256 0.848849 
lowerneck -2.272079 -3.517492 2.657629 
upperneck -2.154021 -4.763080 -1.801737 
head -0.393766 -2.396983 -1.000050 
rclavicle 0.000000 0.000000 
rhumerus -44.812802 -18.906047 -80.899631 
rradius 27.248403 
rwrist 32.416526 
rhand -19.505037 -21.847712 
rfingers 0.000000 
rthumb 6.817668 -51.717895 
lclavicle 0.000000 0.000000 
lhumerus -40.142598 41.928912 67.085579 
lradius 23.849559 
lwrist -60.415801 
lhand -21.977157 6.336806 
lfingers 0.000000 
lthumb 4.430850 36.270407 
rfemur -26.717164 -5.183890 15.763193 
rtibia 72.359891 
rfoot -7.002886 -14.013615 
rtoes -28.118935 
lfemur -24.321506 -2.438790 -26.078066 
ltibia 28.454711 
lfoot -7.743650 2.220077 
ltoes -21.995646 
174
root -7.603391 17.531095 -6.327055 4.991754 1.005144 3.382616
lowerback -11.694188 1.326765 -4.197444 
upperback -0.020163 2.463047 -1.893342 
thorax 6.456549 1.103442 0.788441 
lowerneck -2.178925 -3.423245 2.639679 
upperneck -2.029414 -4.634498 -1.846910 
head -0.368609 -2.331841 -1.010638 
rclavicle 0.000000 0.000000 
rhumerus -45.412603 -18.943042 -80.561414 
rradius 27.371327 
rwrist 32.422476 
rhand -19.716931 -22.187395 
rfingers 0.000000 
rthumb 6.613118 -52.064176 
lclavicle 0.000000 0.000000 
lhumerus -38.696559 40.646662 68.991780 
lradius 24.265912 
lwrist -57.903013 
lhand -21.871670 6.382986 
lfingers 0.000000 
lthumb 4.532707 36.314461 
rfemur -27.782151 -5.236394 15.764923 
rtibia 72.166196 
rfoot -7.188314 -13.699898 
rtoes -28.581031 
lfemur -24.088439 -2.383272 -26.156125 
ltibia 28.567586 
lfoot -7.956567 2.046426 
ltoes -22.139132 
175
root -7.586358 17.530916 -6.267109 4.932495 1.145300 3.429842
lowerback -11.617375 1.166561 -4.179928 
upperback 0.012196 2.242942 -1.867473 
thorax 6.456272 0.995658 0.767498 
lowerneck -2.161330 -3.329302 2.607490 
upperneck -1.935773 -4.507572 -1.851349 
head -0.339143 -2.267911 -1.007257 
rclavicle 0.000000 0.000000 
rhumerus -45.810752 -18.988073 -80.212577 
rradius 27.314176 
rwrist 32.394373 
rhand -19.862200 -22.385478 
rfingers 0.000000 
rthumb 6.472815 -52.266480 
lclavicle 0.000000 0.000000 
lhumerus -37.293250 39.590794 70.749620 
lradius 24.676024 
lwrist -55.753384 
lhand -21.836013 6.568764 
lfingers 0.000000 
lthumb 4.567166 36.499541 
rfemur -28.858689 -5.314334 15.676791 
rtibia 71.956066 
rfoot -7.552965 -13.340692 
rtoes -27.862633 
lfemur -23.862097 -2.417274 -26.297656 
ltibia 28.701450 
lfoot -8.146513 1.877181 
ltoes -22.294597 
